# xmcd
#
# Track frame offsets: 
#        150
#        12455
#        25983
#        38135
#        49680
#        61015
#        72730
#        84973
#        94503
#        105820
#        116328
#        127023
#
# Disc length: 1878 seconds
#
# Revision: 0
# Processed by: cddbd v1.5.2PL0 Copyright (c) Steve Scherf et al.
# Submitted via: ExactAudioCopy v0.95b4
#
DISCID=9007540c
DTITLE=Glen Campbell - This Is Glen Campbell
DYEAR=1900
DGENRE=Country
TTITLE0=By The Time I Get To Phoenix
TTITLE1=Gentle On My Mind
TTITLE2=Homeward Bound
TTITLE3=Hey Little One
TTITLE4=Tomorrow Never Comes
TTITLE5=Dreams Of The Everyday Housewife
TTITLE6=Galveston
TTITLE7=Universal Soldier
TTITLE8=Cold December (In Your Heart)
TTITLE9=You're Young And You'll Forget
TTITLE10=Bad Seed
TTITLE11=Wichita Lineman
EXTD=
EXTT0=
EXTT1=
EXTT2=
EXTT3=
EXTT4=
EXTT5=
EXTT6=
EXTT7=
EXTT8=
EXTT9=
EXTT10=
EXTT11=
PLAYORDER=
